<?xml version="1.0" encoding="UTF-8"?>
<svg xmlns="http://www.w3.org/2000/svg" xmlns:xlink="http://www.w3.org/1999/xlink" width="30px" height="28px" viewBox="0 0 30 28" version="1.1">
<g id="surface1">
<path style=" stroke:none;fill-rule:nonzero;fill:rgb(100%,100%,99.607843%);fill-opacity:1;" d="M 30.023438 0.0703125 C 30.023438 9.386719 30.023438 18.703125 30.023438 28.023438 C 20.027344 28.023438 10.027344 28.023438 0.0234375 28.023438 C 0.0234375 18.714844 0.0234375 9.402344 0.0351562 0.0820312 C 10.039062 0.0703125 20.03125 0.0703125 30.023438 0.0703125 M 18.539062 2.980469 C 18.535156 2.921875 18.535156 2.867188 18.542969 2.792969 C 18.535156 2.75 18.53125 2.710938 18.527344 2.644531 C 18.507812 2.132812 18.40625 1.632812 18.28125 1.128906 C 18.082031 1.773438 17.886719 2.410156 17.734375 3.0625 C 17.597656 3.644531 17.488281 4.238281 17.390625 4.832031 C 17.335938 5.167969 17.328125 5.515625 17.285156 5.871094 C 17.292969 5.945312 17.300781 6.015625 17.304688 6.09375 C 17.304688 6.09375 17.308594 6.101562 17.296875 6.109375 C 17.289062 6.144531 17.277344 6.179688 17.253906 6.21875 C 17.21875 6.222656 17.175781 6.238281 17.144531 6.226562 C 16.46875 5.933594 15.894531 5.5 15.363281 4.996094 C 14.824219 4.484375 14.390625 3.886719 14.035156 3.222656 C 13.964844 3.046875 13.894531 2.875 13.824219 2.699219 C 13.808594 2.703125 13.792969 2.710938 13.773438 2.714844 C 13.835938 2.890625 13.894531 3.0625 13.957031 3.257812 C 14.046875 3.511719 14.128906 3.769531 14.222656 4.023438 C 14.488281 4.734375 14.816406 5.410156 15.292969 6.003906 C 15.441406 6.191406 15.613281 6.363281 15.757812 6.542969 C 15.289062 6.46875 14.820312 6.382812 14.347656 6.328125 C 13.527344 6.234375 12.710938 6.273438 11.902344 6.433594 C 10.964844 6.613281 10.085938 6.953125 9.269531 7.441406 C 7.710938 8.367188 6.507812 9.640625 5.65625 11.242188 C 5.539062 11.464844 5.445312 11.699219 5.328125 11.941406 C 5.371094 11.953125 5.414062 11.96875 5.457031 11.96875 C 10.554688 11.96875 15.652344 11.96875 20.753906 11.96875 C 20.824219 11.96875 20.894531 11.96875 20.976562 11.980469 C 20.988281 12.109375 20.996094 12.238281 20.984375 12.363281 C 17.550781 12.363281 14.117188 12.367188 10.683594 12.367188 C 10.625 12.367188 10.566406 12.371094 10.488281 12.363281 C 10.476562 12.363281 10.464844 12.363281 10.453125 12.363281 C 8.679688 12.363281 6.910156 12.363281 5.140625 12.363281 C 5.113281 12.363281 5.085938 12.371094 5.039062 12.367188 C 4.476562 12.367188 3.917969 12.367188 3.359375 12.363281 C 3.265625 12.363281 3.21875 12.402344 3.1875 12.484375 C 2.878906 13.257812 2.664062 14.054688 2.570312 14.882812 C 2.480469 15.667969 2.5 16.449219 2.601562 17.230469 C 2.617188 17.359375 2.660156 17.386719 2.78125 17.386719 C 9.796875 17.386719 16.808594 17.386719 23.824219 17.386719 C 23.847656 17.386719 23.871094 17.382812 23.894531 17.386719 C 23.960938 17.390625 23.988281 17.359375 23.984375 17.292969 C 23.984375 17.179688 23.988281 17.066406 23.984375 16.949219 C 23.953125 16.113281 23.875 15.28125 23.734375 14.457031 C 23.621094 13.785156 23.457031 13.132812 23.210938 12.496094 C 23.171875 12.394531 23.121094 12.363281 23.011719 12.363281 C 22.546875 12.371094 22.082031 12.367188 21.617188 12.34375 C 21.644531 12.210938 21.667969 12.082031 21.714844 11.953125 C 22.882812 11.953125 24.046875 11.953125 25.21875 11.953125 C 25.214844 11.917969 25.214844 11.902344 25.210938 11.894531 C 24.898438 11.179688 24.484375 10.535156 23.90625 10.007812 C 23.570312 9.703125 23.191406 9.460938 22.804688 9.253906 C 23.101562 9.277344 23.402344 9.289062 23.695312 9.332031 C 24.757812 9.484375 25.65625 9.9375 26.34375 10.785156 C 26.691406 11.21875 26.921875 11.707031 27.011719 12.261719 C 27.023438 12.214844 27.035156 12.164062 27.035156 12.117188 C 27.015625 11.691406 26.964844 11.273438 26.855469 10.863281 C 26.667969 10.136719 26.292969 9.53125 25.726562 9.050781 C 24.949219 8.394531 24.03125 8.070312 23.035156 7.933594 C 22.824219 7.902344 22.609375 7.871094 22.417969 7.832031 C 23.292969 7.605469 24.1875 7.484375 25.097656 7.46875 C 25.011719 7.410156 24.921875 7.367188 24.832031 7.332031 C 23.917969 6.980469 22.980469 6.996094 22.042969 7.210938 C 21.589844 7.3125 21.148438 7.460938 20.691406 7.574219 C 20.683594 7.527344 20.675781 7.480469 20.667969 7.433594 C 20.507812 6.621094 20.664062 5.882812 21.179688 5.230469 C 21.453125 4.882812 21.800781 4.648438 22.238281 4.570312 C 22.695312 4.492188 23.105469 4.625 23.484375 4.867188 C 23.902344 5.128906 24.21875 5.496094 24.507812 5.894531 C 24.546875 5.949219 24.585938 6.003906 24.617188 6.046875 C 24.832031 5.8125 25.019531 5.570312 25.246094 5.371094 C 25.46875 5.167969 25.726562 5.003906 25.976562 4.824219 C 25.640625 4.769531 25.355469 4.589844 25.117188 4.351562 C 24.898438 4.128906 24.6875 3.898438 24.484375 3.664062 C 24.019531 3.121094 23.441406 2.792969 22.734375 2.726562 C 22.007812 2.660156 21.320312 2.816406 20.667969 3.148438 C 19.992188 3.496094 19.414062 3.976562 18.867188 4.5 C 18.730469 4.628906 18.585938 4.75 18.445312 4.851562 C 18.445312 4.519531 18.449219 4.1875 18.464844 3.84375 C 18.464844 3.816406 18.464844 3.789062 18.472656 3.742188 C 18.488281 3.53125 18.507812 3.324219 18.539062 3.105469 C 18.535156 3.070312 18.535156 3.035156 18.539062 2.980469 M 22.675781 17.792969 C 16.691406 17.792969 10.703125 17.792969 4.691406 17.792969 C 4.742188 18.046875 4.777344 18.28125 4.832031 18.511719 C 5.070312 19.554688 5.445312 20.542969 5.988281 21.464844 C 6.246094 21.902344 6.546875 22.316406 6.835938 22.738281 C 6.867188 22.78125 6.941406 22.816406 7 22.820312 C 7.167969 22.832031 7.335938 22.824219 7.507812 22.824219 C 13.183594 22.824219 18.863281 22.824219 24.539062 22.824219 C 24.632812 22.824219 24.703125 22.816406 24.761719 22.726562 C 25.101562 22.21875 25.367188 21.667969 25.566406 21.089844 C 25.914062 20.066406 26.050781 19.003906 26.070312 17.921875 C 26.074219 17.808594 26.023438 17.792969 25.929688 17.792969 C 24.855469 17.796875 23.777344 17.792969 22.675781 17.792969 M 13.664062 27.367188 C 14.183594 27.332031 14.703125 27.3125 15.21875 27.261719 C 16.058594 27.175781 16.875 26.972656 17.675781 26.699219 C 18.886719 26.28125 20.015625 25.707031 21.027344 24.90625 C 21.582031 24.46875 22.074219 23.96875 22.503906 23.40625 C 22.539062 23.359375 22.566406 23.304688 22.605469 23.242188 C 16.671875 23.242188 10.761719 23.242188 4.835938 23.242188 C 4.871094 23.300781 4.894531 23.347656 4.925781 23.386719 C 5.367188 23.898438 5.828125 24.390625 6.347656 24.828125 C 7.117188 25.476562 7.964844 26 8.882812 26.398438 C 10.398438 27.0625 11.988281 27.375 13.664062 27.367188 M 13.78125 2.613281 C 13.78125 2.625 13.777344 2.632812 13.777344 2.644531 C 13.78125 2.636719 13.785156 2.628906 13.78125 2.613281 Z M 13.78125 2.613281 "/>
<path style=" stroke:none;fill-rule:nonzero;fill:rgb(90.196079%,90.196079%,90.196079%);fill-opacity:1;" d="M 30.023438 0.0585938 C 20.03125 0.0703125 10.039062 0.0703125 0.0351562 0.0703125 C 0.03125 0.0546875 0.0351562 0.0273438 0.046875 0.0273438 C 0.0742188 0.0195312 0.101562 0.0234375 0.128906 0.0234375 C 10.058594 0.0234375 19.988281 0.0234375 29.917969 0.0234375 C 29.953125 0.0234375 29.988281 0.0390625 30.023438 0.0585938 Z M 30.023438 0.0585938 "/>
<path style=" stroke:none;fill-rule:nonzero;fill:rgb(84.313726%,34.901962%,27.843139%);fill-opacity:1;" d="M 22.6875 17.792969 C 23.777344 17.792969 24.855469 17.796875 25.929688 17.792969 C 26.023438 17.792969 26.074219 17.808594 26.070312 17.921875 C 26.050781 19.003906 25.914062 20.066406 25.566406 21.089844 C 25.367188 21.667969 25.101562 22.21875 24.761719 22.726562 C 24.703125 22.816406 24.632812 22.824219 24.539062 22.824219 C 18.863281 22.824219 13.183594 22.824219 7.507812 22.824219 C 7.335938 22.824219 7.167969 22.832031 7 22.820312 C 6.941406 22.816406 6.867188 22.78125 6.835938 22.738281 C 6.546875 22.316406 6.246094 21.902344 5.988281 21.464844 C 5.445312 20.542969 5.070312 19.554688 4.832031 18.511719 C 4.777344 18.28125 4.742188 18.046875 4.691406 17.792969 C 10.703125 17.792969 16.691406 17.792969 22.6875 17.792969 Z M 22.6875 17.792969 "/>
<path style=" stroke:none;fill-rule:nonzero;fill:rgb(84.313726%,34.901962%,27.843139%);fill-opacity:1;" d="M 10.507812 12.375 C 10.566406 12.371094 10.625 12.367188 10.683594 12.367188 C 14.117188 12.367188 17.550781 12.363281 20.996094 12.375 C 21.015625 12.425781 21.027344 12.46875 21.027344 12.511719 C 21.054688 13.261719 21.019531 14.007812 20.828125 14.738281 C 20.820312 14.769531 20.824219 14.804688 20.820312 14.835938 C 20.910156 14.671875 20.972656 14.5 21.035156 14.332031 C 21.273438 13.6875 21.46875 13.035156 21.617188 12.367188 C 22.082031 12.367188 22.546875 12.371094 23.011719 12.363281 C 23.121094 12.363281 23.171875 12.394531 23.210938 12.496094 C 23.457031 13.132812 23.621094 13.785156 23.734375 14.457031 C 23.875 15.28125 23.953125 16.113281 23.984375 16.949219 C 23.988281 17.066406 23.984375 17.179688 23.984375 17.292969 C 23.988281 17.359375 23.960938 17.390625 23.894531 17.386719 C 23.871094 17.382812 23.847656 17.386719 23.824219 17.386719 C 16.808594 17.386719 9.796875 17.386719 2.78125 17.386719 C 2.660156 17.386719 2.617188 17.359375 2.601562 17.230469 C 2.5 16.449219 2.480469 15.667969 2.570312 14.882812 C 2.664062 14.054688 2.878906 13.257812 3.1875 12.484375 C 3.21875 12.402344 3.265625 12.363281 3.359375 12.363281 C 3.917969 12.367188 4.476562 12.367188 5.050781 12.378906 C 5.042969 12.46875 5.023438 12.554688 4.996094 12.636719 C 4.898438 12.910156 4.882812 13.195312 4.898438 13.480469 C 4.914062 13.769531 5.027344 14.027344 5.191406 14.253906 C 5.382812 14.515625 5.628906 14.722656 5.910156 14.890625 C 6.257812 15.097656 6.632812 15.136719 7.023438 15.117188 C 7.246094 15.105469 7.472656 15.101562 7.691406 15.136719 C 8.0625 15.199219 8.429688 15.308594 8.800781 15.382812 C 9.203125 15.464844 9.558594 15.324219 9.855469 15.082031 C 10.359375 14.671875 10.59375 14.113281 10.601562 13.457031 C 10.601562 13.179688 10.597656 12.90625 10.53125 12.632812 C 10.511719 12.550781 10.515625 12.460938 10.507812 12.375 Z M 10.507812 12.375 "/>
<path style=" stroke:none;fill-rule:nonzero;fill:rgb(84.313726%,34.901962%,27.843139%);fill-opacity:1;" d="M 13.652344 27.367188 C 11.988281 27.375 10.398438 27.0625 8.882812 26.398438 C 7.964844 26 7.117188 25.476562 6.347656 24.828125 C 5.828125 24.390625 5.367188 23.898438 4.925781 23.386719 C 4.894531 23.347656 4.871094 23.300781 4.835938 23.242188 C 10.761719 23.242188 16.671875 23.242188 22.605469 23.242188 C 22.566406 23.304688 22.539062 23.359375 22.503906 23.40625 C 22.074219 23.96875 21.582031 24.46875 21.027344 24.90625 C 20.015625 25.707031 18.886719 26.28125 17.675781 26.699219 C 16.875 26.972656 16.058594 27.175781 15.21875 27.261719 C 14.703125 27.3125 14.183594 27.332031 13.652344 27.367188 Z M 13.652344 27.367188 "/>
<path style=" stroke:none;fill-rule:nonzero;fill:rgb(84.313726%,34.901962%,27.843139%);fill-opacity:1;" d="M 5.339844 11.929688 C 5.445312 11.699219 5.539062 11.464844 5.65625 11.242188 C 6.507812 9.640625 7.710938 8.367188 9.269531 7.441406 C 10.085938 6.953125 10.964844 6.613281 11.902344 6.433594 C 12.710938 6.273438 13.527344 6.234375 14.347656 6.328125 C 14.820312 6.382812 15.289062 6.46875 15.773438 6.546875 C 15.921875 6.648438 16.050781 6.75 16.1875 6.859375 C 16.152344 6.894531 16.128906 6.925781 16.101562 6.953125 C 15.839844 7.175781 15.59375 7.414062 15.316406 7.617188 C 14.554688 8.175781 13.71875 8.527344 12.746094 8.433594 C 12.347656 8.394531 11.972656 8.296875 11.625 8.09375 C 11.46875 8 11.320312 7.890625 11.167969 7.78125 C 11.164062 7.78125 11.160156 7.78125 11.15625 7.78125 C 11.160156 7.78125 11.164062 7.785156 11.167969 7.792969 C 11.261719 7.914062 11.351562 8.027344 11.453125 8.132812 C 11.789062 8.492188 12.167969 8.789062 12.628906 8.972656 C 13.386719 9.277344 14.152344 9.234375 14.914062 8.992188 C 15.574219 8.78125 16.152344 8.40625 16.726562 8.03125 C 16.816406 7.972656 16.898438 7.953125 17 7.992188 C 17.59375 8.21875 18.195312 8.433594 18.785156 8.671875 C 19.234375 8.851562 19.671875 9.0625 20.109375 9.265625 C 20.167969 9.289062 20.226562 9.347656 20.253906 9.40625 C 20.523438 9.945312 20.710938 10.511719 20.832031 11.097656 C 20.886719 11.371094 20.917969 11.652344 20.949219 11.925781 C 18.179688 11.929688 15.417969 11.929688 12.660156 11.929688 C 12.578125 11.929688 12.546875 11.910156 12.523438 11.828125 C 12.4375 11.527344 12.355469 11.222656 12.15625 10.964844 C 12.011719 10.773438 11.839844 10.609375 11.609375 10.535156 C 11.292969 10.429688 10.972656 10.34375 10.652344 10.253906 C 10.164062 10.113281 9.671875 10.011719 9.15625 10.070312 C 8.792969 10.109375 8.449219 10.203125 8.152344 10.433594 C 7.984375 10.570312 7.824219 10.710938 7.734375 10.917969 C 7.59375 11.230469 7.476562 11.554688 7.257812 11.824219 C 7.199219 11.894531 7.148438 11.933594 7.050781 11.929688 C 6.480469 11.925781 5.910156 11.929688 5.339844 11.929688 Z M 5.339844 11.929688 "/>
<path style=" stroke:none;fill-rule:nonzero;fill:rgb(40.392157%,78.431374%,47.843137%);fill-opacity:1;" d="M 20.957031 11.925781 C 20.917969 11.652344 20.886719 11.371094 20.832031 11.097656 C 20.710938 10.511719 20.523438 9.945312 20.253906 9.40625 C 20.226562 9.347656 20.167969 9.289062 20.109375 9.265625 C 19.671875 9.0625 19.234375 8.851562 18.785156 8.671875 C 18.195312 8.433594 17.59375 8.21875 17 7.992188 C 16.898438 7.953125 16.816406 7.972656 16.726562 8.03125 C 16.152344 8.40625 15.574219 8.78125 14.914062 8.992188 C 14.152344 9.234375 13.386719 9.277344 12.628906 8.972656 C 12.167969 8.789062 11.789062 8.492188 11.453125 8.132812 C 11.351562 8.027344 11.261719 7.914062 11.167969 7.792969 C 11.167969 7.785156 11.167969 7.785156 11.167969 7.785156 C 11.320312 7.890625 11.46875 8 11.625 8.09375 C 11.972656 8.296875 12.347656 8.394531 12.746094 8.433594 C 13.71875 8.527344 14.554688 8.175781 15.316406 7.617188 C 15.59375 7.414062 15.839844 7.175781 16.101562 6.953125 C 16.128906 6.925781 16.152344 6.894531 16.1875 6.859375 C 16.050781 6.75 15.921875 6.648438 15.785156 6.542969 C 15.613281 6.363281 15.441406 6.191406 15.292969 6.003906 C 14.816406 5.410156 14.488281 4.734375 14.222656 4.023438 C 14.128906 3.769531 14.046875 3.511719 13.964844 3.246094 C 13.992188 3.234375 14.011719 3.238281 14.03125 3.238281 C 14.390625 3.886719 14.824219 4.484375 15.363281 4.996094 C 15.894531 5.5 16.46875 5.933594 17.144531 6.226562 C 17.175781 6.238281 17.21875 6.222656 17.265625 6.222656 C 17.320312 6.273438 17.363281 6.324219 17.417969 6.359375 C 17.589844 6.46875 17.769531 6.566406 17.9375 6.683594 C 18.144531 6.832031 18.34375 7.003906 18.550781 7.152344 C 18.957031 7.445312 19.414062 7.613281 19.894531 7.738281 C 20.179688 7.808594 20.472656 7.808594 20.761719 7.832031 C 20.78125 7.832031 20.800781 7.804688 20.832031 7.789062 C 20.898438 7.789062 20.953125 7.785156 21.015625 7.792969 C 21.144531 7.796875 21.265625 7.789062 21.398438 7.785156 C 21.550781 7.785156 21.695312 7.789062 21.835938 7.796875 C 21.878906 7.808594 21.917969 7.808594 21.964844 7.8125 C 22.117188 7.820312 22.253906 7.828125 22.394531 7.839844 C 22.609375 7.871094 22.824219 7.902344 23.035156 7.933594 C 24.03125 8.070312 24.949219 8.394531 25.726562 9.050781 C 26.292969 9.53125 26.667969 10.136719 26.855469 10.863281 C 26.964844 11.273438 27.015625 11.691406 27.035156 12.117188 C 27.035156 12.164062 27.023438 12.214844 27.011719 12.261719 C 26.921875 11.707031 26.691406 11.21875 26.34375 10.785156 C 25.65625 9.9375 24.757812 9.484375 23.695312 9.332031 C 23.402344 9.289062 23.101562 9.277344 22.789062 9.257812 C 22.421875 9.273438 22.074219 9.28125 21.726562 9.292969 C 21.707031 9.292969 21.683594 9.3125 21.671875 9.328125 C 21.609375 9.425781 21.578125 9.523438 21.609375 9.644531 C 21.726562 10.050781 21.757812 10.476562 21.757812 10.898438 C 21.757812 11.25 21.714844 11.597656 21.691406 11.949219 C 21.667969 12.082031 21.644531 12.210938 21.617188 12.355469 C 21.46875 13.035156 21.273438 13.6875 21.035156 14.332031 C 20.972656 14.5 20.910156 14.671875 20.820312 14.835938 C 20.824219 14.804688 20.820312 14.769531 20.828125 14.738281 C 21.019531 14.007812 21.054688 13.261719 21.027344 12.511719 C 21.027344 12.46875 21.015625 12.425781 21.007812 12.375 C 20.996094 12.238281 20.988281 12.109375 20.972656 11.96875 C 20.960938 11.945312 20.960938 11.9375 20.957031 11.925781 Z M 20.957031 11.925781 "/>
<path style=" stroke:none;fill-rule:nonzero;fill:rgb(34.117648%,67.843139%,41.568628%);fill-opacity:1;" d="M 20.824219 7.789062 C 20.800781 7.804688 20.78125 7.832031 20.761719 7.832031 C 20.472656 7.808594 20.179688 7.808594 19.894531 7.738281 C 19.414062 7.613281 18.957031 7.445312 18.550781 7.152344 C 18.34375 7.003906 18.144531 6.832031 17.9375 6.683594 C 17.769531 6.566406 17.589844 6.46875 17.417969 6.359375 C 17.363281 6.324219 17.320312 6.273438 17.269531 6.21875 C 17.277344 6.179688 17.289062 6.144531 17.3125 6.105469 C 17.351562 6.078125 17.382812 6.066406 17.398438 6.042969 C 17.617188 5.710938 17.898438 5.441406 18.191406 5.175781 C 18.285156 5.085938 18.359375 4.976562 18.445312 4.875 C 18.585938 4.75 18.730469 4.628906 18.867188 4.5 C 19.414062 3.976562 19.992188 3.496094 20.667969 3.148438 C 21.320312 2.816406 22.007812 2.660156 22.734375 2.726562 C 23.441406 2.792969 24.019531 3.121094 24.484375 3.664062 C 24.6875 3.898438 24.898438 4.128906 25.117188 4.351562 C 25.355469 4.589844 25.640625 4.769531 25.976562 4.824219 C 25.726562 5.003906 25.46875 5.167969 25.246094 5.371094 C 25.019531 5.570312 24.832031 5.8125 24.617188 6.046875 C 24.585938 6.003906 24.546875 5.949219 24.507812 5.894531 C 24.21875 5.496094 23.902344 5.128906 23.484375 4.867188 C 23.105469 4.625 22.695312 4.492188 22.238281 4.570312 C 21.800781 4.648438 21.453125 4.882812 21.179688 5.230469 C 20.664062 5.882812 20.507812 6.621094 20.667969 7.433594 C 20.675781 7.480469 20.683594 7.527344 20.699219 7.589844 C 20.699219 7.699219 20.679688 7.796875 20.824219 7.789062 Z M 20.824219 7.789062 "/>
<path style=" stroke:none;fill-rule:nonzero;fill:rgb(93.725491%,52.941179%,47.450981%);fill-opacity:1;" d="M 10.5 12.371094 C 10.515625 12.460938 10.511719 12.550781 10.53125 12.632812 C 10.597656 12.90625 10.601562 13.179688 10.601562 13.457031 C 10.59375 14.113281 10.359375 14.671875 9.855469 15.082031 C 9.558594 15.324219 9.203125 15.464844 8.800781 15.382812 C 8.429688 15.308594 8.0625 15.199219 7.691406 15.136719 C 7.472656 15.101562 7.246094 15.105469 7.023438 15.117188 C 6.632812 15.136719 6.257812 15.097656 5.910156 14.890625 C 5.628906 14.722656 5.382812 14.515625 5.191406 14.253906 C 5.027344 14.027344 4.914062 13.769531 4.898438 13.480469 C 4.882812 13.195312 4.898438 12.910156 4.996094 12.636719 C 5.023438 12.554688 5.042969 12.46875 5.0625 12.378906 C 5.085938 12.371094 5.113281 12.363281 5.140625 12.363281 C 6.910156 12.363281 8.679688 12.363281 10.453125 12.363281 C 10.464844 12.363281 10.476562 12.363281 10.5 12.371094 Z M 10.5 12.371094 "/>
<path style=" stroke:none;fill-rule:nonzero;fill:rgb(93.333334%,53.333336%,47.843137%);fill-opacity:1;" d="M 20.949219 11.925781 C 20.960938 11.9375 20.960938 11.945312 20.964844 11.960938 C 20.894531 11.96875 20.824219 11.96875 20.753906 11.96875 C 15.652344 11.96875 10.554688 11.96875 5.457031 11.96875 C 5.414062 11.96875 5.371094 11.953125 5.332031 11.933594 C 5.910156 11.929688 6.480469 11.925781 7.050781 11.929688 C 7.148438 11.933594 7.199219 11.894531 7.257812 11.824219 C 7.476562 11.554688 7.59375 11.230469 7.734375 10.917969 C 7.824219 10.710938 7.984375 10.570312 8.152344 10.433594 C 8.449219 10.203125 8.792969 10.109375 9.15625 10.070312 C 9.671875 10.011719 10.164062 10.113281 10.652344 10.253906 C 10.972656 10.34375 11.292969 10.429688 11.609375 10.535156 C 11.839844 10.609375 12.011719 10.773438 12.15625 10.964844 C 12.355469 11.222656 12.4375 11.527344 12.523438 11.828125 C 12.546875 11.910156 12.578125 11.929688 12.660156 11.929688 C 15.417969 11.929688 18.179688 11.929688 20.949219 11.925781 Z M 20.949219 11.925781 "/>
<path style=" stroke:none;fill-rule:nonzero;fill:rgb(84.313726%,34.901962%,28.235295%);fill-opacity:1;" d="M 21.703125 11.953125 C 21.714844 11.597656 21.757812 11.25 21.757812 10.898438 C 21.757812 10.476562 21.726562 10.050781 21.609375 9.644531 C 21.578125 9.523438 21.609375 9.425781 21.671875 9.328125 C 21.683594 9.3125 21.707031 9.292969 21.726562 9.292969 C 22.074219 9.28125 22.421875 9.273438 22.78125 9.261719 C 23.191406 9.460938 23.570312 9.703125 23.90625 10.007812 C 24.484375 10.535156 24.898438 11.179688 25.210938 11.894531 C 25.214844 11.902344 25.214844 11.917969 25.21875 11.953125 C 24.046875 11.953125 22.882812 11.953125 21.703125 11.953125 Z M 21.703125 11.953125 "/>
<path style=" stroke:none;fill-rule:nonzero;fill:rgb(27.450982%,52.941179%,32.941177%);fill-opacity:1;" d="M 18.445312 4.863281 C 18.359375 4.976562 18.285156 5.085938 18.191406 5.175781 C 17.898438 5.441406 17.617188 5.710938 17.398438 6.042969 C 17.382812 6.066406 17.351562 6.078125 17.316406 6.097656 C 17.308594 6.101562 17.304688 6.09375 17.308594 6.082031 C 17.308594 5.996094 17.304688 5.925781 17.296875 5.859375 C 17.328125 5.515625 17.335938 5.167969 17.390625 4.832031 C 17.488281 4.238281 17.597656 3.644531 17.734375 3.0625 C 17.886719 2.410156 18.082031 1.773438 18.28125 1.128906 C 18.40625 1.632812 18.507812 2.132812 18.519531 2.664062 C 18.519531 2.722656 18.527344 2.765625 18.535156 2.8125 C 18.535156 2.867188 18.535156 2.921875 18.527344 2.992188 C 18.519531 3.042969 18.523438 3.082031 18.523438 3.117188 C 18.507812 3.324219 18.488281 3.53125 18.460938 3.753906 C 18.449219 3.796875 18.449219 3.824219 18.449219 3.855469 C 18.449219 4.1875 18.445312 4.519531 18.445312 4.863281 Z M 18.445312 4.863281 "/>
<path style=" stroke:none;fill-rule:nonzero;fill:rgb(27.843139%,53.725493%,33.725491%);fill-opacity:1;" d="M 20.832031 7.789062 C 20.679688 7.796875 20.699219 7.699219 20.703125 7.597656 C 21.148438 7.460938 21.589844 7.3125 22.042969 7.210938 C 22.980469 6.996094 23.917969 6.980469 24.832031 7.332031 C 24.921875 7.367188 25.011719 7.410156 25.097656 7.46875 C 24.1875 7.484375 23.292969 7.605469 22.40625 7.835938 C 22.253906 7.828125 22.117188 7.820312 21.960938 7.804688 C 21.90625 7.792969 21.871094 7.792969 21.835938 7.789062 C 21.695312 7.789062 21.550781 7.785156 21.390625 7.777344 C 21.253906 7.777344 21.132812 7.78125 21.007812 7.785156 C 20.953125 7.785156 20.898438 7.789062 20.832031 7.789062 Z M 20.832031 7.789062 "/>
<path style=" stroke:none;fill-rule:nonzero;fill:rgb(70.980394%,89.803922%,76.862746%);fill-opacity:1;" d="M 14.03125 3.230469 C 14.011719 3.238281 13.992188 3.234375 13.964844 3.234375 C 13.894531 3.0625 13.835938 2.890625 13.773438 2.714844 C 13.792969 2.710938 13.808594 2.703125 13.824219 2.699219 C 13.894531 2.875 13.964844 3.046875 14.03125 3.230469 Z M 14.03125 3.230469 "/>
<path style=" stroke:none;fill-rule:nonzero;fill:rgb(34.117648%,67.843139%,41.568628%);fill-opacity:1;" d="M 17.292969 5.867188 C 17.304688 5.925781 17.308594 5.996094 17.308594 6.078125 C 17.300781 6.015625 17.292969 5.945312 17.292969 5.867188 Z M 17.292969 5.867188 "/>
<path style=" stroke:none;fill-rule:nonzero;fill:rgb(34.117648%,67.843139%,41.568628%);fill-opacity:1;" d="M 18.539062 2.800781 C 18.527344 2.765625 18.519531 2.722656 18.515625 2.671875 C 18.53125 2.710938 18.535156 2.75 18.539062 2.800781 Z M 18.539062 2.800781 "/>
<path style=" stroke:none;fill-rule:nonzero;fill:rgb(34.117648%,67.843139%,41.568628%);fill-opacity:1;" d="M 18.53125 3.113281 C 18.523438 3.082031 18.519531 3.042969 18.523438 3.003906 C 18.535156 3.035156 18.535156 3.070312 18.53125 3.113281 Z M 18.53125 3.113281 "/>
<path style=" stroke:none;fill-rule:nonzero;fill:rgb(34.117648%,67.843139%,41.568628%);fill-opacity:1;" d="M 18.457031 3.851562 C 18.449219 3.824219 18.449219 3.796875 18.457031 3.761719 C 18.464844 3.789062 18.464844 3.816406 18.457031 3.851562 Z M 18.457031 3.851562 "/>
<path style=" stroke:none;fill-rule:nonzero;fill:rgb(70.980394%,89.803922%,76.862746%);fill-opacity:1;" d="M 13.785156 2.617188 C 13.785156 2.628906 13.78125 2.636719 13.777344 2.644531 C 13.777344 2.632812 13.78125 2.625 13.785156 2.617188 Z M 13.785156 2.617188 "/>
<path style=" stroke:none;fill-rule:nonzero;fill:rgb(40.392157%,78.431374%,47.843137%);fill-opacity:1;" d="M 11.167969 7.785156 C 11.164062 7.785156 11.160156 7.78125 11.15625 7.78125 C 11.160156 7.78125 11.164062 7.78125 11.167969 7.78125 C 11.167969 7.785156 11.167969 7.785156 11.167969 7.785156 Z M 11.167969 7.785156 "/>
<path style=" stroke:none;fill-rule:nonzero;fill:rgb(34.117648%,67.843139%,41.568628%);fill-opacity:1;" d="M 21.015625 7.792969 C 21.132812 7.78125 21.253906 7.777344 21.382812 7.777344 C 21.265625 7.789062 21.144531 7.796875 21.015625 7.792969 Z M 21.015625 7.792969 "/>
<path style=" stroke:none;fill-rule:nonzero;fill:rgb(34.117648%,67.843139%,41.568628%);fill-opacity:1;" d="M 21.835938 7.796875 C 21.871094 7.792969 21.90625 7.792969 21.949219 7.804688 C 21.917969 7.808594 21.878906 7.808594 21.835938 7.796875 Z M 21.835938 7.796875 "/>
</g>
</svg>
